{
  "accessors": [
    {
      "bufferView": 2,
      "componentType": 5126,
      "count": 1778,
      "max": [
        -87.868797302246094,
        33.67449951171875,
        3.798799991607666
      ],
      "min": [
        -93.769699096679688,
        -34.790000915527344,
        -3.5464000701904297
      ],
      "type": "VEC3"
    },
    {
      "bufferView": 2,
      "byteOffset": 21336,
      "componentType": 5126,
      "count": 1778,
      "max": [
        0.99480152130126953,
        0.99945932626724243,
        0.99518007040023804
      ],
      "min": [
        -0.99176949262619019,
        -0.99945932626724243,
        -0.98320811986923218
      ],
      "type": "VEC3"
    },
    {
      "bufferView": 1,
      "componentType": 5126,
      "count": 1778,
      "max": [
        0.91670000553131104,
        1
      ],
      "min": [
        -0.083300001919269562,
        0
      ],
      "type": "VEC2"
    },
    {
      "bufferView": 0,
      "componentType": 5125,
      "count": 9216,
      "max": [
        1777
      ],
      "min": [
        0
      ],
      "type": "SCALAR"
    },
    {
      "bufferView": 2,
      "byteOffset": 42672,
      "componentType": 5126,
      "count": 9410,
      "max": [
        -88.111900329589844,
        23.488100051879883,
        16.734899520874023
      ],
      "min": [
        -93.738899230957031,
        -24.603599548339844,
        8.2842998504638672
      ],
      "type": "VEC3"
    },
    {
      "bufferView": 2,
      "byteOffset": 155592,
      "componentType": 5126,
      "count": 9410,
      "max": [
        0.62970888614654541,
        0.9997285008430481,
        0.9995993971824646
      ],
      "min": [
        -0.99983054399490356,
        -0.9997285008430481,
        -0.99985945224761963
      ],
      "type": "VEC3"
    },
    {
      "bufferView": 1,
      "byteOffset": 14224,
      "componentType": 5126,
      "count": 9410,
      "max": [
        1,
        1
      ],
      "min": [
        0,
        0.4375
      ],
      "type": "VEC2"
    },
    {
      "bufferView": 0,
      "byteOffset": 36864,
      "componentType": 5125,
      "count": 53760,
      "max": [
        9409
      ],
      "min": [
        0
      ],
      "type": "SCALAR"
    },
    {
      "bufferView": 2,
      "byteOffset": 268512,
      "componentType": 5126,
      "count": 5097,
      "max": [
        26.396499633789062,
        52.918498992919922,
        -11.848999977111816
      ],
      "min": [
        -174.24859619140625,
        -54.033901214599609,
        -139.58760070800781
      ],
      "type": "VEC3"
    },
    {
      "bufferView": 2,
      "byteOffset": 329676,
      "componentType": 5126,
      "count": 5097,
      "max": [
        0.99974685907363892,
        1,
        1
      ],
      "min": [
        -0.99999880790710449,
        -1,
        -0.99995303153991699
      ],
      "type": "VEC3"
    },
    {
      "bufferView": 1,
      "byteOffset": 89504,
      "componentType": 5126,
      "count": 5097,
      "max": [
        1,
        1
      ],
      "min": [
        -0.125,
        0
      ],
      "type": "VEC2"
    },
    {
      "bufferView": 0,
      "byteOffset": 251904,
      "componentType": 5125,
      "count": 30192,
      "max": [
        5096
      ],
      "min": [
        0
      ],
      "type": "SCALAR"
    },
    {
      "bufferView": 2,
      "byteOffset": 390840,
      "componentType": 5126,
      "count": 15090,
      "max": [
        65.269500732421875,
        79.789199829101562,
        137.78750610351562
      ],
      "min": [
        -128.77149963378906,
        -46.601898193359375,
        -98.260498046875
      ],
      "type": "VEC3"
    },
    {
      "bufferView": 2,
      "byteOffset": 571920,
      "componentType": 5126,
      "count": 15090,
      "max": [
        0.99991917610168457,
        1,
        0.99996805191040039
      ],
      "min": [
        -0.99999964237213135,
        -1,
        -0.99996805191040039
      ],
      "type": "VEC3"
    },
    {
      "bufferView": 1,
      "byteOffset": 130280,
      "componentType": 5126,
      "count": 15090,
      "max": [
        1,
        1
      ],
      "min": [
        -0.125,
        0
      ],
      "type": "VEC2"
    },
    {
      "bufferView": 0,
      "byteOffset": 372672,
      "componentType": 5125,
      "count": 88224,
      "max": [
        15089
      ],
      "min": [
        0
      ],
      "type": "SCALAR"
    },
    {
      "bufferView": 2,
      "byteOffset": 753000,
      "componentType": 5126,
      "count": 9266,
      "max": [
        -44.818199157714844,
        54.003101348876953,
        63.253799438476562
      ],
      "min": [
        -103.99700164794922,
        -55.212898254394531,
        -29.094200134277344
      ],
      "type": "VEC3"
    },
    {
      "bufferView": 2,
      "byteOffset": 864192,
      "componentType": 5126,
      "count": 9266,
      "max": [
        0.9991384744644165,
        0.99998223781585693,
        0.99998486042022705
      ],
      "min": [
        -0.99930691719055176,
        -0.99998223781585693,
        -0.99998748302459717
      ],
      "type": "VEC3"
    },
    {
      "bufferView": 1,
      "byteOffset": 251000,
      "componentType": 5126,
      "count": 9266,
      "max": [
        1.0716999769210815,
        1
      ],
      "min": [
        -0.05090000107884407,
        0
      ],
      "type": "VEC2"
    },
    {
      "bufferView": 0,
      "byteOffset": 725568,
      "componentType": 5125,
      "count": 54384,
      "max": [
        9265
      ],
      "min": [
        0
      ],
      "type": "SCALAR"
    },
    {
      "bufferView": 2,
      "byteOffset": 975384,
      "componentType": 5126,
      "count": 6867,
      "max": [
        1.4925999641418457,
        50.327400207519531,
        -13.034199714660645
      ],
      "min": [
        -171.72369384765625,
        -34.681198120117188,
        -124.44000244140625
      ],
      "type": "VEC3"
    },
    {
      "bufferView": 2,
      "byteOffset": 1057788,
      "componentType": 5126,
      "count": 6867,
      "max": [
        0.99999892711639404,
        1,
        0.99972456693649292
      ],
      "min": [
        -0.99941468238830566,
        -1,
        -0.99991166591644287
      ],
      "type": "VEC3"
    },
    {
      "bufferView": 1,
      "byteOffset": 325128,
      "componentType": 5126,
      "count": 6867,
      "max": [
        1.0003999471664429,
        1
      ],
      "min": [
        -0.0017999999690800905,
        0
      ],
      "type": "VEC2"
    },
    {
      "bufferView": 0,
      "byteOffset": 943104,
      "componentType": 5125,
      "count": 40146,
      "max": [
        6866
      ],
      "min": [
        0
      ],
      "type": "SCALAR"
    },
    {
      "bufferView": 2,
      "byteOffset": 1140192,
      "componentType": 5126,
      "count": 9455,
      "max": [
        14.923600196838379,
        50.582698822021484,
        56.294601440429688
      ],
      "min": [
        -131.02490234375,
        -53.831501007080078,
        -124.44000244140625
      ],
      "type": "VEC3"
    },
    {
      "bufferView": 2,
      "byteOffset": 1253652,
      "componentType": 5126,
      "count": 9455,
      "max": [
        0.99966710805892944,
        1,
        0.99999558925628662
      ],
      "min": [
        -0.99989485740661621,
        -1,
        -0.99996638298034668
      ],
      "type": "VEC3"
    },
    {
      "bufferView": 1,
      "byteOffset": 380064,
      "componentType": 5126,
      "count": 9455,
      "max": [
        1.0008000135421753,
        1
      ],
      "min": [
        -0.125,
        0
      ],
      "type": "VEC2"
    },
    {
      "bufferView": 0,
      "byteOffset": 1103688,
      "componentType": 5125,
      "count": 54810,
      "max": [
        9454
      ],
      "min": [
        0
      ],
      "type": "SCALAR"
    },
    {
      "bufferView": 2,
      "byteOffset": 1367112,
      "componentType": 5126,
      "count": 1765,
      "max": [
        1.7985999584197998,
        55.900901794433594,
        77.742301940917969
      ],
      "min": [
        -123.61139678955078,
        -57.2156982421875,
        -44.339000701904297
      ],
      "type": "VEC3"
    },
    {
      "bufferView": 2,
      "byteOffset": 1388292,
      "componentType": 5126,
      "count": 1765,
      "max": [
        0.99982088804244995,
        1,
        1
      ],
      "min": [
        -0.99994802474975586,
        -1,
        -1
      ],
      "type": "VEC3"
    },
    {
      "bufferView": 1,
      "byteOffset": 455704,
      "componentType": 5126,
      "count": 1765,
      "max": [
        0.875,
        1
      ],
      "min": [
        -0.125,
        0
      ],
      "type": "VEC2"
    },
    {
      "bufferView": 0,
      "byteOffset": 1322928,
      "componentType": 5125,
      "count": 9744,
      "max": [
        1764
      ],
      "min": [
        0
      ],
      "type": "SCALAR"
    },
    {
      "bufferView": 2,
      "byteOffset": 1409472,
      "componentType": 5126,
      "count": 7169,
      "max": [
        94.684196472167969,
        45.883201599121094,
        89.196502685546875
      ],
      "min": [
        -104.55210113525391,
        -46.998699188232422,
        -70.261703491210938
      ],
      "type": "VEC3"
    },
    {
      "bufferView": 2,
      "byteOffset": 1495500,
      "componentType": 5126,
      "count": 7169,
      "max": [
        0.99996387958526611,
        1,
        0.99996638298034668
      ],
      "min": [
        -0.99998903274536133,
        -1,
        -0.99999880790710449
      ],
      "type": "VEC3"
    },
    {
      "bufferView": 1,
      "byteOffset": 469824,
      "componentType": 5126,
      "count": 7169,
      "max": [
        1,
        1
      ],
      "min": [
        0,
        0
      ],
      "type": "VEC2"
    },
    {
      "bufferView": 0,
      "byteOffset": 1361904,
      "componentType": 5125,
      "count": 41760,
      "max": [
        7168
      ],
      "min": [
        0
      ],
      "type": "SCALAR"
    }
  ],
  "asset": {
    "extras": {
      "author": "redchristian (https://sketchfab.com/redchristian)",
      "license": "CC-BY-4.0 (http://creativecommons.org/licenses/by/4.0/)",
      "source": "https://sketchfab.com/3d-models/pikachu-499511c9a49b46658fc7ae6ed11fb784",
      "title": "Pikachu"
    },
    "generator": "Sketchfab-8.44.0",
    "version": "2.0"
  },
  "bufferViews": [
    {
      "buffer": 0,
      "byteLength": 1528944,
      "byteOffset": 0,
      "name": "floatBufferViews",
      "target": 34963
    },
    {
      "buffer": 0,
      "byteLength": 527176,
      "byteOffset": 1528944,
      "byteStride": 8,
      "name": "floatBufferViews",
      "target": 34962
    },
    {
      "buffer": 0,
      "byteLength": 1581528,
      "byteOffset": 2056120,
      "byteStride": 12,
      "name": "floatBufferViews",
      "target": 34962
    }
  ],
  "buffers": [
    {
      "byteLength": 3637648,
      "uri": "scene.bin"
    }
  ],
  "materials": [
    {
      "doubleSided": true,
      "name": "07___Default",
      "pbrMetallicRoughness": {
        "baseColorFactor": [
          0.47883194347791608,
          0.31111167636503345,
          0.31111167636503345,
          1
        ],
        "metallicFactor": 0.36147537727142148,
        "roughnessFactor": 0.44704524200991386
      }
    },
    {
      "doubleSided": true,
      "name": "19___Default",
      "pbrMetallicRoughness": {
        "baseColorFactor": [
          0.64356355294479162,
          0.55281300387952204,
          0.059026580186802527,
          1
        ],
        "metallicFactor": 0.22700844696807632,
        "roughnessFactor": 0.59999999999999998
      }
    },
    {
      "doubleSided": true,
      "name": "20___Default",
      "pbrMetallicRoughness": {
        "baseColorFactor": [
          0,
          0,
          0,
          1
        ],
        "metallicFactor": 0.12310218264276414,
        "roughnessFactor": 0.36959076212188824
      }
    },
    {
      "doubleSided": true,
      "name": "21___Default",
      "pbrMetallicRoughness": {
        "baseColorFactor": [
          1,
          0,
          0,
          1
        ],
        "metallicFactor": 0.64874563746493163,
        "roughnessFactor": 0.31458156336142884
      }
    }
  ],
  "meshes": [
    {
      "primitives": [
        {
          "attributes": {
            "NORMAL": 1,
            "POSITION": 0,
            "TEXCOORD_0": 2
          },
          "indices": 3,
          "material": 3,
          "mode": 4
        }
      ]
    },
    {
      "primitives": [
        {
          "attributes": {
            "NORMAL": 5,
            "POSITION": 4,
            "TEXCOORD_0": 6
          },
          "indices": 7,
          "material": 2,
          "mode": 4
        }
      ]
    },
    {
      "primitives": [
        {
          "attributes": {
            "NORMAL": 9,
            "POSITION": 8,
            "TEXCOORD_0": 10
          },
          "indices": 11,
          "material": 0,
          "mode": 4
        }
      ]
    },
    {
      "primitives": [
        {
          "attributes": {
            "NORMAL": 13,
            "POSITION": 12,
            "TEXCOORD_0": 14
          },
          "indices": 15,
          "material": 0,
          "mode": 4
        }
      ]
    },
    {
      "primitives": [
        {
          "attributes": {
            "NORMAL": 17,
            "POSITION": 16,
            "TEXCOORD_0": 18
          },
          "indices": 19,
          "material": 0,
          "mode": 4
        }
      ]
    },
    {
      "primitives": [
        {
          "attributes": {
            "NORMAL": 21,
            "POSITION": 20,
            "TEXCOORD_0": 22
          },
          "indices": 23,
          "material": 0,
          "mode": 4
        }
      ]
    },
    {
      "primitives": [
        {
          "attributes": {
            "NORMAL": 25,
            "POSITION": 24,
            "TEXCOORD_0": 26
          },
          "indices": 27,
          "material": 0,
          "mode": 4
        }
      ]
    },
    {
      "primitives": [
        {
          "attributes": {
            "NORMAL": 29,
            "POSITION": 28,
            "TEXCOORD_0": 30
          },
          "indices": 31,
          "material": 0,
          "mode": 4
        }
      ]
    },
    {
      "primitives": [
        {
          "attributes": {
            "NORMAL": 33,
            "POSITION": 32,
            "TEXCOORD_0": 34
          },
          "indices": 35,
          "material": 1,
          "mode": 4
        }
      ]
    }
  ],
  "nodes": [
    {
      "children": [
        1
      ],
      "name": "RootNode (gltf orientation matrix)",
      "rotation": [
        -0.70710678118654746,
        -0,
        -0,
        0.70710678118654757
      ]
    },
    {
      "children": [
        2
      ],
      "name": "RootNode (model correction matrix)"
    },
    {
      "children": [
        3,
        4,
        5,
        6,
        7,
        8,
        9,
        10,
        11
      ],
      "name": "Pikachu.obj.cleaner.materialmerger.gles"
    },
    {
      "mesh": 0,
      "name": ""
    },
    {
      "mesh": 1,
      "name": ""
    },
    {
      "mesh": 2,
      "name": ""
    },
    {
      "mesh": 3,
      "name": ""
    },
    {
      "mesh": 4,
      "name": ""
    },
    {
      "mesh": 5,
      "name": ""
    },
    {
      "mesh": 6,
      "name": ""
    },
    {
      "mesh": 7,
      "name": ""
    },
    {
      "mesh": 8,
      "name": ""
    }
  ],
  "scene": 0,
  "scenes": [
    {
      "name": "OSG_Scene",
      "nodes": [
        0
      ]
    }
  ]
}

