{
  "accessors": [
    {
      "bufferView": 2,
      "componentType": 5126,
      "count": 892,
      "max": [
        1.4889999628067017,
        -0,
        0.79799997806549072
      ],
      "min": [
        0.089000001549720764,
        -0.60000002384185791,
        0
      ],
      "type": "VEC3"
    },
    {
      "bufferView": 2,
      "byteOffset": 10704,
      "componentType": 5126,
      "count": 892,
      "max": [
        1,
        1,
        1
      ],
      "min": [
        -1,
        -1,
        -1
      ],
      "type": "VEC3"
    },
    {
      "bufferView": 1,
      "componentType": 5126,
      "count": 892,
      "max": [
        1,
        1.3999999761581421
      ],
      "min": [
        0,
        0
      ],
      "type": "VEC2"
    },
    {
      "bufferView": 0,
      "componentType": 5125,
      "count": 1368,
      "max": [
        891
      ],
      "min": [
        0
      ],
      "type": "SCALAR"
    },
    {
      "bufferView": 2,
      "byteOffset": 21408,
      "componentType": 5126,
      "count": 96,
      "max": [
        0.54699999094009399,
        -0.55000001192092896,
        0.77300000190734863
      ],
      "min": [
        0.10199999809265137,
        -0.56800001859664917,
        0.10000000149011612
      ],
      "type": "VEC3"
    },
    {
      "bufferView": 2,
      "byteOffset": 22560,
      "componentType": 5126,
      "count": 96,
      "max": [
        1,
        1,
        1
      ],
      "min": [
        -1,
        -1,
        -1
      ],
      "type": "VEC3"
    },
    {
      "bufferView": 1,
      "byteOffset": 7136,
      "componentType": 5126,
      "count": 96,
      "max": [
        0.44499999284744263,
        1
      ],
      "min": [
        0,
        0
      ],
      "type": "VEC2"
    },
    {
      "bufferView": 0,
      "byteOffset": 5472,
      "componentType": 5125,
      "count": 144,
      "max": [
        95
      ],
      "min": [
        0
      ],
      "type": "SCALAR"
    },
    {
      "bufferView": 2,
      "byteOffset": 23712,
      "componentType": 5126,
      "count": 192,
      "max": [
        0.38699999451637268,
        -0.56800001859664917,
        0.68900001049041748
      ],
      "min": [
        0.26199999451637268,
        -0.58799999952316284,
        0.17800000309944153
      ],
      "type": "VEC3"
    },
    {
      "bufferView": 2,
      "byteOffset": 26016,
      "componentType": 5126,
      "count": 192,
      "max": [
        1,
        1,
        1
      ],
      "min": [
        -1,
        -1,
        -1
      ],
      "type": "VEC3"
    },
    {
      "bufferView": 1,
      "byteOffset": 7904,
      "componentType": 5126,
      "count": 192,
      "max": [
        1,
        1
      ],
      "min": [
        0,
        0
      ],
      "type": "VEC2"
    },
    {
      "bufferView": 0,
      "byteOffset": 6048,
      "componentType": 5125,
      "count": 336,
      "max": [
        191
      ],
      "min": [
        0
      ],
      "type": "SCALAR"
    }
  ],
  "asset": {
    "extras": {
      "author": "jussikajala (https://sketchfab.com/jussikajala)",
      "license": "CC-BY-4.0 (http://creativecommons.org/licenses/by/4.0/)",
      "source": "https://sketchfab.com/3d-models/computer-desk-3-6f627b4d8c184a68a5be28e4ae6a40da",
      "title": "Computer Desk 3"
    },
    "generator": "Sketchfab-8.23.0",
    "version": "2.0"
  },
  "bufferViews": [
    {
      "buffer": 0,
      "byteLength": 7392,
      "byteOffset": 0,
      "name": "floatBufferViews",
      "target": 34963
    },
    {
      "buffer": 0,
      "byteLength": 9440,
      "byteOffset": 7392,
      "byteStride": 8,
      "name": "floatBufferViews",
      "target": 34962
    },
    {
      "buffer": 0,
      "byteLength": 28320,
      "byteOffset": 16832,
      "byteStride": 12,
      "name": "floatBufferViews",
      "target": 34962
    }
  ],
  "buffers": [
    {
      "byteLength": 45152,
      "uri": "scene.bin"
    }
  ],
  "images": [
    {
      "uri": "textures/material1_baseColor.jpeg"
    },
    {
      "uri": "textures/material2_baseColor.jpeg"
    },
    {
      "uri": "textures/material3_baseColor.jpeg"
    }
  ],
  "materials": [
    {
      "doubleSided": true,
      "emissiveFactor": [
        0,
        0,
        0
      ],
      "name": "material1",
      "pbrMetallicRoughness": {
        "baseColorFactor": [
          1,
          1,
          1,
          1
        ],
        "baseColorTexture": {
          "index": 0,
          "texCoord": 0
        },
        "metallicFactor": 0,
        "roughnessFactor": 0.59999999999999998
      }
    },
    {
      "doubleSided": true,
      "emissiveFactor": [
        0,
        0,
        0
      ],
      "name": "material2",
      "pbrMetallicRoughness": {
        "baseColorFactor": [
          1,
          1,
          1,
          1
        ],
        "baseColorTexture": {
          "index": 1,
          "texCoord": 0
        },
        "metallicFactor": 0,
        "roughnessFactor": 0.59999999999999998
      }
    },
    {
      "doubleSided": true,
      "emissiveFactor": [
        0,
        0,
        0
      ],
      "name": "material3",
      "pbrMetallicRoughness": {
        "baseColorFactor": [
          1,
          1,
          1,
          1
        ],
        "baseColorTexture": {
          "index": 2,
          "texCoord": 0
        },
        "metallicFactor": 0,
        "roughnessFactor": 0.59999999999999998
      }
    }
  ],
  "meshes": [
    {
      "primitives": [
        {
          "attributes": {
            "NORMAL": 1,
            "POSITION": 0,
            "TEXCOORD_0": 2
          },
          "indices": 3,
          "material": 0,
          "mode": 4
        }
      ]
    },
    {
      "primitives": [
        {
          "attributes": {
            "NORMAL": 5,
            "POSITION": 4,
            "TEXCOORD_0": 6
          },
          "indices": 7,
          "material": 1,
          "mode": 4
        }
      ]
    },
    {
      "primitives": [
        {
          "attributes": {
            "NORMAL": 9,
            "POSITION": 8,
            "TEXCOORD_0": 10
          },
          "indices": 11,
          "material": 2,
          "mode": 4
        }
      ]
    }
  ],
  "nodes": [
    {
      "children": [
        1
      ],
      "name": "RootNode (gltf orientation matrix)",
      "rotation": [
        -0.70710678118654746,
        -0,
        -0,
        0.70710678118654757
      ]
    },
    {
      "children": [
        2
      ],
      "name": "RootNode (model correction matrix)"
    },
    {
      "children": [
        3
      ],
      "name": "root"
    },
    {
      "children": [
        4
      ],
      "matrix": [
        1,
        0,
        0,
        0,
        0,
        2.2204460492503131e-16,
        1,
        0,
        0,
        -1,
        2.2204460492503131e-16,
        0,
        0,
        0,
        0,
        1
      ],
      "name": "GLTF_SceneRootNode"
    },
    {
      "children": [
        5
      ],
      "matrix": [
        1,
        0,
        -0,
        0,
        -0,
        0,
        -1,
        0,
        0,
        1,
        0,
        0,
        0,
        0,
        0,
        1
      ],
      "name": "RootNode (gltf orientation matrix)_0"
    },
    {
      "children": [
        6
      ],
      "name": "RootNode (model correction matrix)_1"
    },
    {
      "children": [
        7,
        9,
        11
      ],
      "name": "Computer desk.obj.cleaner.materialmerger.gles_2"
    },
    {
      "children": [
        8
      ],
      "name": "_3"
    },
    {
      "mesh": 0,
      "name": ""
    },
    {
      "children": [
        10
      ],
      "name": "_4"
    },
    {
      "mesh": 1,
      "name": ""
    },
    {
      "children": [
        12
      ],
      "name": "_5"
    },
    {
      "mesh": 2,
      "name": ""
    }
  ],
  "samplers": [
    {
      "magFilter": 9729,
      "minFilter": 9987,
      "wrapS": 10497,
      "wrapT": 10497
    }
  ],
  "scene": 0,
  "scenes": [
    {
      "name": "OSG_Scene",
      "nodes": [
        0
      ]
    }
  ],
  "textures": [
    {
      "sampler": 0,
      "source": 0
    },
    {
      "sampler": 0,
      "source": 1
    },
    {
      "sampler": 0,
      "source": 2
    }
  ]
}

