{
  "accessors": [
    {
      "bufferView": 2,
      "componentType": 5126,
      "count": 57123,
      "max": [
        -12.294405937194824,
        23.839824676513672,
        2.2281820774078369
      ],
      "min": [
        -13.928997993469238,
        21.254526138305664,
        0.34246039390563965
      ],
      "type": "VEC3"
    },
    {
      "bufferView": 2,
      "byteOffset": 685476,
      "componentType": 5126,
      "count": 57123,
      "max": [
        1,
        1,
        1
      ],
      "min": [
        -1,
        -0.99984604120254517,
        -1
      ],
      "type": "VEC3"
    },
    {
      "bufferView": 1,
      "componentType": 5126,
      "count": 57123,
      "max": [
        1.0000001192092896,
        1
      ],
      "min": [
        0,
        -1.5646219253540039e-07
      ],
      "type": "VEC2"
    },
    {
      "bufferView": 0,
      "componentType": 5125,
      "count": 362880,
      "max": [
        57122
      ],
      "min": [
        0
      ],
      "type": "SCALAR"
    },
    {
      "bufferView": 2,
      "byteOffset": 1370952,
      "componentType": 5126,
      "count": 12240,
      "max": [
        -12.344669342041016,
        23.758827209472656,
        2.1782751083374023
      ],
      "min": [
        -13.63033390045166,
        23.223411560058594,
        0.39267051219940186
      ],
      "type": "VEC3"
    },
    {
      "bufferView": 2,
      "byteOffset": 1517832,
      "componentType": 5126,
      "count": 12240,
      "max": [
        1,
        0.99993234872817993,
        1
      ],
      "min": [
        -1,
        -0.99935942888259888,
        -1
      ],
      "type": "VEC3"
    },
    {
      "bufferView": 1,
      "byteOffset": 456984,
      "componentType": 5126,
      "count": 12240,
      "max": [
        1,
        1
      ],
      "min": [
        0,
        0
      ],
      "type": "VEC2"
    },
    {
      "bufferView": 0,
      "byteOffset": 1451520,
      "componentType": 5125,
      "count": 44064,
      "max": [
        12239
      ],
      "min": [
        0
      ],
      "type": "SCALAR"
    },
    {
      "bufferView": 2,
      "byteOffset": 1664712,
      "componentType": 5126,
      "count": 290,
      "max": [
        -12.964861869812012,
        23.339115142822266,
        1.9404507875442505
      ],
      "min": [
        -13.068909645080566,
        21.31340217590332,
        0.50172877311706543
      ],
      "type": "VEC3"
    },
    {
      "bufferView": 2,
      "byteOffset": 1668192,
      "componentType": 5126,
      "count": 290,
      "max": [
        0.99854207038879395,
        0.65794646739959717,
        0.90061801671981812
      ],
      "min": [
        -0.99854254722595215,
        -0.81968235969543457,
        -0.87135392427444458
      ],
      "type": "VEC3"
    },
    {
      "bufferView": 1,
      "byteOffset": 554904,
      "componentType": 5126,
      "count": 290,
      "max": [
        1,
        1
      ],
      "min": [
        0,
        0
      ],
      "type": "VEC2"
    },
    {
      "bufferView": 0,
      "byteOffset": 1627776,
      "componentType": 5125,
      "count": 1182,
      "max": [
        289
      ],
      "min": [
        0
      ],
      "type": "SCALAR"
    },
    {
      "bufferView": 2,
      "byteOffset": 1671672,
      "componentType": 5126,
      "count": 286,
      "max": [
        -12.451223373413086,
        23.335796356201172,
        1.3241099119186401
      ],
      "min": [
        -13.892953872680664,
        21.308279037475586,
        1.2286291122436523
      ],
      "type": "VEC3"
    },
    {
      "bufferView": 2,
      "byteOffset": 1675104,
      "componentType": 5126,
      "count": 286,
      "max": [
        0.88125723600387573,
        0.66940736770629883,
        0.99997931718826294
      ],
      "min": [
        -0.90538561344146729,
        -0.82007336616516113,
        -0.99997925758361816
      ],
      "type": "VEC3"
    },
    {
      "bufferView": 1,
      "byteOffset": 557224,
      "componentType": 5126,
      "count": 286,
      "max": [
        1,
        1
      ],
      "min": [
        0,
        0
      ],
      "type": "VEC2"
    },
    {
      "bufferView": 0,
      "byteOffset": 1632504,
      "componentType": 5125,
      "count": 1176,
      "max": [
        285
      ],
      "min": [
        0
      ],
      "type": "SCALAR"
    },
    {
      "bufferView": 2,
      "byteOffset": 1678536,
      "componentType": 5126,
      "count": 286,
      "max": [
        -12.57893180847168,
        23.589540481567383,
        1.4428874254226685
      ],
      "min": [
        -13.558443069458008,
        21.315841674804688,
        1.3474066257476807
      ],
      "type": "VEC3"
    },
    {
      "bufferView": 2,
      "byteOffset": 1681968,
      "componentType": 5126,
      "count": 286,
      "max": [
        0.97604143619537354,
        0.49305081367492676,
        0.99997931718826294
      ],
      "min": [
        -0.96106117963790894,
        -0.92470270395278931,
        -0.99997931718826294
      ],
      "type": "VEC3"
    },
    {
      "bufferView": 1,
      "byteOffset": 559512,
      "componentType": 5126,
      "count": 286,
      "max": [
        1,
        1
      ],
      "min": [
        0,
        0
      ],
      "type": "VEC2"
    },
    {
      "bufferView": 0,
      "byteOffset": 1637208,
      "componentType": 5125,
      "count": 1176,
      "max": [
        285
      ],
      "min": [
        0
      ],
      "type": "SCALAR"
    },
    {
      "bufferView": 2,
      "byteOffset": 1685400,
      "componentType": 5126,
      "count": 286,
      "max": [
        -13.072942733764648,
        23.300888061523438,
        2.072453498840332
      ],
      "min": [
        -13.168423652648926,
        21.266677856445312,
        0.64049148559570312
      ],
      "type": "VEC3"
    },
    {
      "bufferView": 2,
      "byteOffset": 1688832,
      "componentType": 5126,
      "count": 286,
      "max": [
        0.99997931718826294,
        0.66574454307556152,
        0.88354974985122681
      ],
      "min": [
        -0.99997943639755249,
        -0.82272052764892578,
        -0.90747910737991333
      ],
      "type": "VEC3"
    },
    {
      "bufferView": 1,
      "byteOffset": 561800,
      "componentType": 5126,
      "count": 286,
      "max": [
        1,
        1
      ],
      "min": [
        0,
        0
      ],
      "type": "VEC2"
    },
    {
      "bufferView": 0,
      "byteOffset": 1641912,
      "componentType": 5125,
      "count": 1176,
      "max": [
        285
      ],
      "min": [
        0
      ],
      "type": "SCALAR"
    }
  ],
  "asset": {
    "extras": {
      "author": "Katia_M (https://sketchfab.com/Katia_M)",
      "license": "CC-BY-4.0 (http://creativecommons.org/licenses/by/4.0/)",
      "source": "https://sketchfab.com/3d-models/pen-holder-pen-stand-0764abdf429e4d32babefc389ce91933",
      "title": "Pen Holder Pen Stand"
    },
    "generator": "Sketchfab-8.42.0",
    "version": "2.0"
  },
  "bufferViews": [
    {
      "buffer": 0,
      "byteLength": 1646616,
      "byteOffset": 0,
      "name": "floatBufferViews",
      "target": 34963
    },
    {
      "buffer": 0,
      "byteLength": 564088,
      "byteOffset": 1646616,
      "byteStride": 8,
      "name": "floatBufferViews",
      "target": 34962
    },
    {
      "buffer": 0,
      "byteLength": 1692264,
      "byteOffset": 2210704,
      "byteStride": 12,
      "name": "floatBufferViews",
      "target": 34962
    }
  ],
  "buffers": [
    {
      "byteLength": 3902968,
      "uri": "scene.bin"
    }
  ],
  "materials": [
    {
      "doubleSided": true,
      "emissiveFactor": [
        0,
        0,
        0
      ],
      "name": "lambert1",
      "pbrMetallicRoughness": {
        "baseColorFactor": [
          0.5,
          0.5,
          0.5,
          1
        ],
        "metallicFactor": 0,
        "roughnessFactor": 0.59999999999999998
      }
    },
    {
      "doubleSided": true,
      "emissiveFactor": [
        0,
        0,
        0
      ],
      "name": "ANIM35_assign01_8blinn2",
      "pbrMetallicRoughness": {
        "baseColorFactor": [
          0.20000000000000001,
          0.20000000000000001,
          0.20000000000000001,
          1
        ],
        "metallicFactor": 0,
        "roughnessFactor": 0.84149676324989653
      }
    },
    {
      "doubleSided": true,
      "emissiveFactor": [
        0,
        0,
        0
      ],
      "name": "blinn3",
      "pbrMetallicRoughness": {
        "baseColorFactor": [
          0.077785000000000007,
          0.077785000000000007,
          0.33100000000000002,
          1
        ],
        "metallicFactor": 0,
        "roughnessFactor": 0.92074838162494832
      }
    },
    {
      "doubleSided": true,
      "emissiveFactor": [
        0,
        0,
        0
      ],
      "name": "lambert3",
      "pbrMetallicRoughness": {
        "baseColorFactor": [
          0.024048,
          0.14399999999999999,
          0.024048,
          1
        ],
        "metallicFactor": 0,
        "roughnessFactor": 0.59999999999999998
      }
    },
    {
      "doubleSided": true,
      "emissiveFactor": [
        0,
        0,
        0
      ],
      "name": "phong4",
      "pbrMetallicRoughness": {
        "baseColorFactor": [
          1,
          0.7107,
          0,
          1
        ],
        "metallicFactor": 0,
        "roughnessFactor": 0.89426287365594359
      }
    },
    {
      "doubleSided": true,
      "emissiveFactor": [
        0,
        0,
        0
      ],
      "name": "lambert4",
      "pbrMetallicRoughness": {
        "baseColorFactor": [
          0.80200000000000005,
          0.47799199999999997,
          0.47799199999999997,
          1
        ],
        "metallicFactor": 0,
        "roughnessFactor": 0.59999999999999998
      }
    }
  ],
  "meshes": [
    {
      "name": "pensil_stand_lambert1_0",
      "primitives": [
        {
          "attributes": {
            "NORMAL": 1,
            "POSITION": 0,
            "TEXCOORD_0": 2
          },
          "indices": 3,
          "material": 0,
          "mode": 4
        }
      ]
    },
    {
      "name": "pensil_stand_ANIM35_assign01_8:blinn2_0",
      "primitives": [
        {
          "attributes": {
            "NORMAL": 5,
            "POSITION": 4,
            "TEXCOORD_0": 6
          },
          "indices": 7,
          "material": 1,
          "mode": 4
        }
      ]
    },
    {
      "name": "pensil_stand_blinn3_0",
      "primitives": [
        {
          "attributes": {
            "NORMAL": 9,
            "POSITION": 8,
            "TEXCOORD_0": 10
          },
          "indices": 11,
          "material": 2,
          "mode": 4
        }
      ]
    },
    {
      "name": "pensil_stand_lambert3_0",
      "primitives": [
        {
          "attributes": {
            "NORMAL": 13,
            "POSITION": 12,
            "TEXCOORD_0": 14
          },
          "indices": 15,
          "material": 3,
          "mode": 4
        }
      ]
    },
    {
      "name": "pensil_stand_phong4_0",
      "primitives": [
        {
          "attributes": {
            "NORMAL": 17,
            "POSITION": 16,
            "TEXCOORD_0": 18
          },
          "indices": 19,
          "material": 4,
          "mode": 4
        }
      ]
    },
    {
      "name": "pensil_stand_lambert4_0",
      "primitives": [
        {
          "attributes": {
            "NORMAL": 21,
            "POSITION": 20,
            "TEXCOORD_0": 22
          },
          "indices": 23,
          "material": 5,
          "mode": 4
        }
      ]
    }
  ],
  "nodes": [
    {
      "children": [
        1
      ],
      "name": "RootNode (gltf orientation matrix)",
      "rotation": [
        -0.70710678118654746,
        -0,
        -0,
        0.70710678118654757
      ]
    },
    {
      "children": [
        2
      ],
      "name": "RootNode (model correction matrix)"
    },
    {
      "children": [
        3
      ],
      "matrix": [
        1,
        0,
        0,
        0,
        0,
        0,
        1,
        0,
        0,
        -1,
        0,
        0,
        0,
        0,
        0,
        1
      ],
      "name": "5f4548bd244a4b9990f1c9dd9649032b.fbx"
    },
    {
      "children": [
        4
      ],
      "name": "RootNode"
    },
    {
      "children": [
        5,
        6,
        7,
        8,
        9,
        10
      ],
      "name": "pensil_stand"
    },
    {
      "mesh": 0,
      "name": "pensil_stand_lambert1_0"
    },
    {
      "mesh": 1,
      "name": "pensil_stand_ANIM35_assign01_8:blinn2_0"
    },
    {
      "mesh": 2,
      "name": "pensil_stand_blinn3_0"
    },
    {
      "mesh": 3,
      "name": "pensil_stand_lambert3_0"
    },
    {
      "mesh": 4,
      "name": "pensil_stand_phong4_0"
    },
    {
      "mesh": 5,
      "name": "pensil_stand_lambert4_0"
    }
  ],
  "scene": 0,
  "scenes": [
    {
      "name": "OSG_Scene",
      "nodes": [
        0
      ]
    }
  ]
}

